<?xml version="1.0" encoding="UTF-8" standalone="no"?>
<!-- Created with Inkscape (http://www.inkscape.org/) -->

<svg
   width="1329.8851"
   height="492.98047"
   viewBox="0 0 351.86542 130.43442"
   version="1.1"
   id="svg5"
   inkscape:version="1.2.1 (0f2f062aeb, 2022-09-21, custom)"
   sodipodi:docname="onlyLogo.svg"
   inkscape:export-filename="onlyLogo.png"
   inkscape:export-xdpi="96"
   inkscape:export-ydpi="96"
   inkscape:dataloss="true"
   xmlns:inkscape="http://www.inkscape.org/namespaces/inkscape"
   xmlns:sodipodi="http://sodipodi.sourceforge.net/DTD/sodipodi-0.dtd"
   xmlns="http://www.w3.org/2000/svg"
   xmlns:svg="http://www.w3.org/2000/svg">
  <sodipodi:namedview
     id="namedview7"
     pagecolor="#ffffff"
     bordercolor="#999999"
     borderopacity="1"
     inkscape:showpageshadow="0"
     inkscape:pageopacity="0"
     inkscape:pagecheckerboard="0"
     inkscape:deskcolor="#d1d1d1"
     inkscape:document-units="mm"
     showgrid="false"
     inkscape:zoom="0.10512065"
     inkscape:cx="2335.4117"
     inkscape:cy="2297.3602"
     inkscape:window-width="1308"
     inkscape:window-height="704"
     inkscape:window-x="58"
     inkscape:window-y="27"
     inkscape:window-maximized="1"
     inkscape:current-layer="layer1"
     showguides="true">
    <sodipodi:guide
       position="65.146961,84.714458"
       orientation="0,-1"
       id="guide289"
       inkscape:locked="false" />
    <sodipodi:guide
       position="69.151401,24.202858"
       orientation="0,-1"
       id="guide291"
       inkscape:locked="false" />
  </sodipodi:namedview>
  <defs
     id="defs2" />
  <g
     inkscape:label="Layer 1"
     inkscape:groupmode="layer"
     id="layer1"
     transform="translate(-157.09954,-172.6333)">
    <g
       id="g728"
       transform="translate(-16.373507)">
      <path
         id="rect234-7-6-5-1-3"
         style="fill:#007396;fill-opacity:1;stroke-width:2.91511"
         d="m 230.95844,278.88779 h -41.0869 c -2.40982,0 -4.35012,1.93981 -4.35012,4.3496 v 15.4802 c 0,2.40979 1.9403,4.35012 4.35012,4.35012 h 41.0869 z" />
      <path
         id="path8694"
         style="fill:#dd3135;fill-opacity:1;stroke-width:2.91511"
         d="m 235.1918,278.88779 v 24.17992 h 41.08741 c 2.40982,0 4.3496,-1.94033 4.3496,-4.35012 v -15.4802 c 0,-2.40979 -1.93978,-4.3496 -4.3496,-4.3496 z" />
      <path
         id="path8692"
         style="fill:#007396;fill-opacity:1;stroke-width:2.91511"
         d="m 230.95844,250.82593 h -53.13578 c -2.40982,0 -4.3496,1.94031 -4.3496,4.35013 v 15.48019 c 0,2.40982 1.93978,4.35012 4.3496,4.35012 h 53.13578 z" />
      <path
         id="path8690"
         style="fill:#dd3135;fill-opacity:1;stroke-width:2.91511"
         d="m 235.1918,250.82593 v 24.18044 h 53.13629 c 2.40979,0 4.3496,-1.9403 4.3496,-4.35012 v -15.48019 c 0,-2.40982 -1.93981,-4.35013 -4.3496,-4.35013 z" />
      <path
         id="path8688"
         style="fill:#007396;fill-opacity:1;stroke-width:2.91511"
         d="m 230.95844,222.7646 h -47.06483 c -2.40982,0 -4.34961,1.9403 -4.34961,4.35012 v 15.48019 c 0,2.40982 1.93979,4.34961 4.34961,4.34961 h 47.06483 z" />
      <path
         id="path8686"
         style="fill:#dd3135;fill-opacity:1;stroke-width:2.91511"
         d="m 235.1918,222.7646 v 24.17992 h 47.06482 c 2.40982,0 4.35012,-1.93979 4.35012,-4.34961 v -15.48019 c 0,-2.40982 -1.9403,-4.35012 -4.35012,-4.35012 z" />
      <path
         id="path8684"
         style="fill:#ed8b00;fill-opacity:1;stroke-width:2.91511"
         d="m 230.95844,172.63329 h -33.68425 c -3.9338,0 -7.10086,3.16707 -7.10086,7.10086 v 31.51074 c 0,3.93378 3.16706,7.10086 7.10086,7.10086 h 33.68425 z" />
      <path
         id="path8682"
         style="fill:#dd3135;fill-opacity:1;stroke-width:2.91511"
         d="m 235.1918,172.63329 v 45.71246 h 33.68476 c 3.93379,0 7.10086,-3.16708 7.10086,-7.10086 v -31.51074 c 0,-3.93379 -3.16707,-7.10086 -7.10086,-7.10086 z" />
      <g
         aria-label="Pekko"
         id="text1228-2-8-2-9-5"
         style="font-size:73.8689px;line-height:1.25;fill:#dd3135;stroke-width:0.989313"
         transform="translate(-271.07136,-529.5254)">
        <path
           d="m 596.24737,754.53781 v 22.69093 h 10.2736 q 5.70307,0 8.8175,-2.95266 3.11446,-2.95265 3.11446,-8.41304 0,-5.41992 -3.11446,-8.37259 -3.11443,-2.95264 -8.8175,-2.95264 z m -8.17036,-6.71425 h 18.44396 q 10.15227,0 15.32953,4.61099 5.21769,4.57055 5.21769,13.42849 0,8.93886 -5.21769,13.50939 -5.17726,4.57056 -15.32953,4.57056 h -10.2736 v 24.26836 h -8.17036 z"
           id="path449"
           style="stroke-width:1.10941" />
        <path
           d="m 668.5784,783.76649 v 3.47799 h -32.69307 q 0.46373,7.34242 4.40544,11.20685 3.98037,3.82578 11.05228,3.82578 4.09629,0 7.92208,-1.00475 3.86443,-1.00475 7.65156,-3.01426 v 6.72411 q -3.82578,1.62306 -7.84478,2.47324 -4.01901,0.85017 -8.15395,0.85017 -10.35668,0 -16.42383,-6.02851 -6.02851,-6.02851 -6.02851,-16.30789 0,-10.62718 5.71935,-16.84892 5.758,-6.26038 15.49637,-6.26038 8.73361,0 13.79601,5.64207 5.10105,5.60342 5.10105,15.2645 z m -7.11055,-2.08679 q -0.0773,-5.83529 -3.28476,-9.31328 -3.16884,-3.47798 -8.42446,-3.47798 -5.95123,0 -9.54514,3.36205 -3.55527,3.36206 -4.0963,9.46786 z"
           id="path451"
           style="stroke-width:1.05996" />
        <path
           d="m 676.40745,747.89195 h 7.1914 v 35.72376 l 21.34096,-18.77539 h 9.13501 l -23.0902,20.36916 24.06201,23.16795 h -9.32938 l -22.1184,-21.26322 v 21.26322 h -7.1914 z"
           id="path453"
           style="stroke-width:1.0662" />
        <path
           d="m 719.16802,747.8653 h 7.189 v 35.7119 l 21.33388,-18.76915 h 9.13199 l -23.08255,20.36239 24.05404,23.16027 h -9.32629 l -22.11107,-21.25615 v 21.25615 h -7.189 z"
           id="path455"
           style="stroke-width:1.06585" />
        <path
           d="m 776.62216,768.86553 q -5.69762,0 -9.0084,4.46571 -3.31078,4.4272 -3.31078,12.16519 0,7.738 3.27229,12.2037 3.31077,4.42721 9.04689,4.42721 5.65914,0 8.96991,-4.46571 3.31079,-4.4657 3.31079,-12.1652 0,-7.66099 -3.31079,-12.12669 -3.31077,-4.50421 -8.96991,-4.50421 z m 0,-6.00561 q 9.23939,0 14.51355,6.00561 5.27416,6.0056 5.27416,16.6309 0,10.58681 -5.27416,16.63091 -5.27416,6.0056 -14.51355,6.0056 -9.27788,0 -14.55203,-6.0056 -5.23566,-6.0441 -5.23566,-16.63091 0,-10.6253 5.23566,-16.6309 5.27415,-6.00561 14.55203,-6.00561 z"
           id="path457"
           style="stroke-width:1.05593" />
      </g>
    </g>
  </g>
</svg>
